<?xml version="1.0" encoding="UTF-8"?>
<!DOCTYPE svg PUBLIC "-//W3C//DTD SVG 1.1//EN" "http://www.w3.org/Graphics/SVG/1.1/DTD/svg11.dtd">
<svg xmlns="http://www.w3.org/2000/svg" version="1.1" width="172px" height="226px" style="shape-rendering:geometricPrecision; text-rendering:geometricPrecision; image-rendering:optimizeQuality; fill-rule:evenodd; clip-rule:evenodd" xmlns:xlink="http://www.w3.org/1999/xlink">
<g><path style="opacity:0.921" fill="#61afee" d="M 171.5,77.5 C 171.5,79.5 171.5,81.5 171.5,83.5C 169.878,85.6088 167.712,86.6088 165,86.5C 139.667,81.5886 114.167,80.0886 88.5,82C 87.5,83 86.5,84 85.5,85C 88.4156,89.9199 92.0823,94.2533 96.5,98C 114.083,111.416 132.083,124.249 150.5,136.5C 151.386,137.325 151.719,138.325 151.5,139.5C 129.488,140.397 107.488,141.564 85.5,143C 74.1267,144.455 63.7933,148.455 54.5,155C 48.628,161.225 49.2947,166.558 56.5,171C 69.3439,177.215 82.6773,182.215 96.5,186C 116.213,190.542 135.879,195.209 155.5,200C 161.591,201.544 166.924,204.377 171.5,208.5C 171.5,210.833 171.5,213.167 171.5,215.5C 167.775,217.803 163.775,219.637 159.5,221C 150.406,222.767 141.406,224.267 132.5,225.5C 118.5,225.5 104.5,225.5 90.5,225.5C 71.4824,224.19 52.4824,221.69 33.5,218C 31.6992,217.683 31.3659,217.016 32.5,216C 52.8172,214.904 73.1505,214.237 93.5,214C 103.269,213.518 112.935,212.518 122.5,211C 93.4309,207.924 65.4309,200.924 38.5,190C 25.0251,184.194 13.5251,175.694 4,164.5C -2.67607,151.252 -0.176072,140.085 11.5,131C 26.9777,121.774 43.811,117.607 62,118.5C 74.3251,118.642 86.4918,119.808 98.5,122C 82.2251,112.068 67.3917,100.234 54,86.5C 49.6555,80.9808 46.8222,74.8141 45.5,68C 45.4785,61.0279 48.8118,56.6946 55.5,55C 62.5,54.3333 69.5,54.3333 76.5,55C 90.0735,58.0486 103.74,58.7152 117.5,57C 124.096,55.7508 126.596,51.9175 125,45.5C 119.434,38.4618 112.601,32.9618 104.5,29C 93.189,24.4544 81.8557,20.1211 70.5,16C 71,15.5 71.5,15 72,14.5C 113.894,21.9256 147.06,42.9256 171.5,77.5 Z"/></g>
</svg>
